<?xml version="1.0" encoding="utf-8"?>
<!-- Generator: Adobe Illustrator 21.1.0, SVG Export Plug-In . SVG Version: 6.00 Build 0)  -->
<!DOCTYPE svg PUBLIC "-//W3C//DTD SVG 1.1//EN" "http://www.w3.org/Graphics/SVG/1.1/DTD/svg11.dtd">
<svg version="1.1" id="Layer_1" xmlns="http://www.w3.org/2000/svg" xmlns:xlink="http://www.w3.org/1999/xlink" x="0px" y="0px"
	 viewBox="0 0 612 612" style="enable-background:new 0 0 612 612;" xml:space="preserve">
<style type="text/css">
	.st0{fill:#FFFFFF;stroke:#231F20;stroke-miterlimit:10;}
	.st1{fill:#FFFFFF;}
</style>
<circle class="st0" cx="-108" cy="250.5" r="0"/>
<g>
	<g>
		<path class="st1" d="M159.1,328.8c-5.5,7.9-12.7,11.8-21.5,11.8c-8.9,0-16.4-3.8-22.5-11.5c-6.1-7.6-9.1-19.8-9.1-36.6
			c0-16.7,4.7-31.5,14.1-44.3c9.4-12.8,21.7-19.2,37-19.2c3.1,0,6.8,1.3,11.2,3.9c4.3,2.6,8.2,5.7,11.5,9.5c0.6-2.1,3.6-5.3,9-9.8
			c5.4-4.4,9.6-6.7,12.5-6.7c3,0,4.5,4.4,4.5,13.3c0,8.9-1.9,16.7-5.6,23.5c-2.1,13.8-3.2,26.6-3.4,38.4
			c20.2-25.6,31-39.1,32.4-40.6c1.3-1.4,2.5-2.2,3.6-2.2c2.1,0,3.1,1,3.1,3.1c0,1.2-0.4,2.6-1.2,4c-6.6,9.7-19.6,26.8-39,51.1
			c-1.2,24.6-2.1,41.3-2.5,50.2c-1,26.2-4.7,44.7-11,55.3c-6.3,10.6-17.5,16-33.6,16c-7,0-13.6-2.1-19.7-6.4
			c-6.1-4.2-9.1-11.6-9.1-22c0-10.4,4-21.1,11.9-32.1c7.9-11,22.5-27.8,43.5-50.5l1.9-35.6C170.5,308.5,164.6,320.9,159.1,328.8z
			 M155.3,240.2c-5.8,0-11.9,4.5-18.4,13.5c-6.5,9-9.8,19.3-9.8,31c0,11.7,1.7,21.2,5.1,28.5c3.4,7.3,7.7,11,12.9,11
			c5.2,0,10.1-4.2,14.9-12.7c4.7-8.5,10.8-23,18.3-43.7c0.4-7,0.6-11.5,0.6-13.3c-1.7-3.1-5.1-6.2-10.2-9.5
			C163.4,241.8,159,240.2,155.3,240.2z M174.2,341.8c-23.5,25.4-35.3,45.8-35.3,61c0,7,1.2,12.8,3.7,17.4c2.5,4.5,5.9,6.8,10.2,6.8
			c6.6,0,11.3-3.6,13.9-10.8c2.7-7.2,4.6-21.9,5.9-44L174.2,341.8z"/>
		<path class="st1" d="M241.7,340.5c-8.1,0-14.2-1.7-18.3-5c-1.4-1.4-2.2-6.6-2.2-15.5c0-8.9,0.7-23.7,2-44.5
			c1.3-20.8,2.5-32,3.6-33.6c1-1.7,4.2-4.7,9.6-9.3c5.4-4.5,9.6-6.8,12.5-6.8c3,0,4.5,3.9,4.5,11.8c0,2.1-0.6,6.1-1.7,12.1
			c-1.1,6-2.4,10.3-3.9,13c-2.7,6.8-4,24.7-4,53.6c0,5.6,0.6,8.4,1.9,8.4c3.5-0.2,8.4-4.6,14.6-13.2c6.2-8.6,12.3-19.6,18.4-33
			c6.1-13.4,9.8-20.1,11.2-20.1c1.3,0,2,0.8,2,2.5c0,5.8-3,15-9,27.6C266.6,323.2,252.9,340.5,241.7,340.5z M232.7,187.5
			c0-3.7,2-6.9,5.9-9.6c3.9-2.7,7.4-4,10.5-4c5.6,0,8.4,3.2,8.4,9.6c0,6.4-1.7,11.9-5,16.6c-3.3,4.6-8,7-13.9,7
			C234.7,207,232.7,200.5,232.7,187.5z"/>
		<path class="st1" d="M436.6,340.5c-11.6,0-20.8-4.4-27.6-13.2c-6.8-8.8-10.2-18.7-10.2-29.9c0-22.5,4.7-39.6,14.3-51.1
			c9.5-11.6,21.8-17.4,36.9-17.4c7,0,12.8,1.9,17.4,5.7c4.5,3.8,6.8,9,6.8,15.6c0,12.4-5.2,22.8-15.6,31.1
			c-10.4,8.4-23.2,12.8-38.3,13.2c0.8,8.1,3.6,15,8.2,20.9c4.6,5.9,10.1,8.8,16.3,8.8c6.2,0,11.8-1.4,16.7-4.3
			c5-2.9,9.5-7,13.6-12.4c8.7-11.4,16.1-24.3,22.3-38.7c1.7-3.7,2.9-6.4,3.9-8.1c0.9-1.7,2-2.5,3.1-2.5c1.1,0,1.7,0.8,1.7,2.5
			c0,10.3-6.3,25.8-18.9,46.5C473.5,329.5,456.6,340.5,436.6,340.5z M420.2,287.3c12.2-2.1,21.1-6,26.8-11.8
			c5.7-5.8,8.5-13.3,8.5-22.6c0-9.3-3-13.9-9-13.9c-7.2,0-13.3,5-18.3,15C423.3,264,420.6,275.1,420.2,287.3z"/>
	</g>
	<g>
		<path class="st1" d="M372.3,223.8c-16.7,1.9-24.6,11.2-28.3,19.2c-3.7-8-11.6-17.2-28.3-19.3c-1.3-0.2-2.7-0.3-4-0.3
			c-41.5-0.8-79.8,64,31.9,131.2l0.4,0.2l0.6-0.4C459.6,285.3,415,218.6,372.3,223.8z M358.6,286.8c1.9,2.1,7.2,9.1,9,12.1
			c1.8,3.1,2.2,7.4,1.9,9.4c-0.4,2-6.3,9.2-10.5,13c-4.2,3.8-11.5,4.4-16.1,4.4c-4.7,0-12-0.6-16.1-4.4c-4.2-3.8-10.1-11-10.5-13
			c-0.4-2,0.1-6.3,1.9-9.4c1.8-3.1,7.1-10,9-12.1c1.9-2.1,4.3-4.2,4.3-4.2s-7.2-6.9-9.8-9.4c-2.6-2.5-14.7-13.9-16.6-15.8
			c0,0,7.1-9.4,7.9-14.1c0,0,17.5,16.3,19.5,18.4c2.1,2.1,9.4,8.9,10.4,9.9c1-1,8.3-7.8,10.4-9.9c2.1-2.1,19.5-18.4,19.5-18.4
			c0.8,4.7,7.9,14.1,7.9,14.1c-1.9,1.8-14,13.2-16.6,15.8c-2.6,2.5-9.8,9.4-9.8,9.4S356.7,284.7,358.6,286.8z"/>
		<path class="st1" d="M342.8,293.8c-1.2,0.9-6.4,6-7.3,6.9c-0.9,0.9-6.4,7.6-7.4,9.1c-1,1.5-1.9,3.7-1.9,3.7
			c1.5,1.5,6.6,2.9,9.3,3.3c2.2,0.3,6.4,0.5,7.3,0.5s5.1-0.2,7.3-0.5c2.7-0.4,7.9-1.8,9.3-3.3c0,0-0.9-2.3-1.9-3.7
			c-1-1.5-6.5-8.2-7.4-9.1C349.2,299.8,344,294.7,342.8,293.8z"/>
	</g>
</g>
</svg>
