<?xml version="1.0" encoding="utf-8"?>
<!-- Generator: Adobe Illustrator 21.1.0, SVG Export Plug-In . SVG Version: 6.00 Build 0)  -->
<!DOCTYPE svg PUBLIC "-//W3C//DTD SVG 1.1//EN" "http://www.w3.org/Graphics/SVG/1.1/DTD/svg11.dtd">
<svg version="1.1" id="Layer_1" xmlns="http://www.w3.org/2000/svg" xmlns:xlink="http://www.w3.org/1999/xlink" x="0px" y="0px"
	 viewBox="0 0 612 612" style="enable-background:new 0 0 612 612;" xml:space="preserve">
<style type="text/css">
	.st0{fill:#FFFFFF;stroke:#231F20;stroke-miterlimit:10;}
	.st1{fill:#FFFFFF;}
</style>
<circle class="st0" cx="-108" cy="250.5" r="0"/>
<g>
	<path class="st1" d="M332.8,415.5c-65-1.1-117.9-11.6-166.2-39.7c-23.2-13.5-42.4-31.1-54.1-55.8c-6.1-12.9-8.8-26.5-8.3-40.7
		c0.1-2.1,0.4-4.3,1.1-6.4c2.2-6.4,9-8,13.8-3.2c5.2,5.2,7.7,11.8,7.7,19c0,17.2,9,29.1,21.8,38.9c17.9,13.7,38.7,21.2,60.1,27.2
		c39.1,11,79,17.9,119.7,17.3c51.1-0.8,100.4-10.9,147-32.5c4.4-2,8.6-4.5,12.7-6.9c4.8-2.8,9.4-5.9,9.6-12.4c0-0.8,0.4-1.7,0.9-2.3
		c1.3-1.4,2.7-2.7,4.1-4c1.3,1.6,3.3,2.9,3.8,4.7c2.2,8,1.6,15.8-2.4,23.2c-7.2,13.3-18.1,22.9-30,31.5
		C447,393,416.3,404,383.6,409.6C363.7,413,343.4,414.3,332.8,415.5z"/>
	<path class="st1" d="M275.5,223.4c0,16.6-6.7,24.3-22.2,25.4c-6.2,0.5-12.7,0.1-18.8-1.3c-13.4-3-21-18.9-15.7-31.7
		c0.3-0.8,0.7-1.5,1.1-2.3c9.3-18,18.6-21.2,36.8-12.5c3.1,1.5,6.1,3.4,9.1,5.1C272.8,210.4,276.4,216.3,275.5,223.4z"/>
	<path class="st1" d="M398.4,223.8c-0.1,16.3-6.8,24-22.3,25.1c-6.2,0.5-12.7,0-18.7-1.4c-13.8-3.2-21.2-19.6-15.2-32.7
		c0.1-0.2,0.1-0.3,0.2-0.5c8.8-18.4,19-22.1,37.4-13.2c3.1,1.5,6.1,3.3,9.1,5.2C395.6,210.5,399.1,216.5,398.4,223.8z"/>
</g>
</svg>
