<?xml version="1.0" encoding="utf-8"?>
<!-- Generator: Adobe Illustrator 21.1.0, SVG Export Plug-In . SVG Version: 6.00 Build 0)  -->
<!DOCTYPE svg PUBLIC "-//W3C//DTD SVG 1.1//EN" "http://www.w3.org/Graphics/SVG/1.1/DTD/svg11.dtd">
<svg version="1.1" id="Layer_1" xmlns="http://www.w3.org/2000/svg" xmlns:xlink="http://www.w3.org/1999/xlink" x="0px" y="0px"
	 viewBox="0 0 612 612" style="enable-background:new 0 0 612 612;" xml:space="preserve">
<style type="text/css">
	.st0{fill:#FFFFFF;stroke:#231F20;stroke-miterlimit:10;}
	.st1{fill:#FFFFFF;}
</style>
<circle class="st0" cx="-108" cy="250.5" r="0"/>
<path class="st1" d="M149.3,281.2c5.4,69.7,62.2,93.3,108,121.9c-3.3,0.7-9.2-1.4-10.7,1.1c9.7,0.5,17.2,3.3,22.8,8
	c-3.6-0.9-5.7,0.6-5.7,0.6c25.3,3.9,37.2,28.6,54.6,38.5c2.1,1.2,8,0.2,11.8,0c2.8,3.8,1.9,4.7,3.2,9.6c6,3,15.8,2.1,24.6,2.1
	c0,0,0,0,0,0c3.8,0.1,8.1,0.5,10.3,1.3c0,0,9.1,2.4,5.7-2.4c14.1,0.6,30.4,1.2,41.8,4.3c0.7,0,1.4,0,2.1,0c1.4-2.7-4.2-3.4-1.1-4.3
	c1.8,1.1,7.1,4.2,8.6,2.1c-2.1-7.3-10.2-2.3-10.7-7.5c-0.6-4.7-6.4-5.4-6.4-5.4c9.6-12.7,15.3-27,12.8-47.1
	c-2.5-20.6-24.5-38-16-59.9c2-3.8,4.4,4.3,10.7,2.1c11.3-4.7,15.7-25.6,27.8-20.3c4,2,2.2,9.9,4.3,13.9c5.2-2.4,4.2-4.3,5.4,1.1
	c2.7-2.4,5.6-4.7,6.4-7.5c4.6-16.4-8.4-27.9-23.5-27.8c2.7-11.7,1.8-27-1.1-34.2c0.3,1.2,3.3,5,4.3,2.1c0-13.8-13.3-19.2-12.8-30
	c21.2,0.7,39.2-10.2,36.4-27.8c-0.9-5.6-8.2-9.1-12.8-13.9c-6.1-6.3-10.5-14.8-18.2-20.3c-8.9-6.5-22.4-11.4-35.3-7.5
	c-2.7-16.9-24.9-20.1-34.2-26.8c3,2.8-0.5,3.6-2.1,1.1c1.8,16.7-3.5,38.8,11.8,43.9c-6.8,8.5-5.6,19.7-8.6,28.9
	c-3.8,11.5-11.9,24.2-18.2,36.4c-19.9,38.8-51.5,71.3-57.8,119.8c-7.8-16.1-22.7-25.6-36.4-38.5c-13.8-13.1-23-26.4-24.6-50.3
	c-2.1-31.5,7.5-66.6,40.6-59.9c20.7,4.2,14.4,30.6,5.3,38.5c9-1.7,14.9-6.5,21.4-10.7c0.5,2.4-3.3,5.8-1.1,6.4
	c29.3-9.5,42.6-61.7,21.4-88.8c-4.2-5.4-10-8.4-15-12.8c4.5-2.1,9.3-0.3,13.9,1.1c-15.3-13.6-43.9-18.7-72.7-16.1
	c-63.4,5.9-87.5,58.9-90.9,119.8C148.9,271.9,148.9,276.4,149.3,281.2z"/>
</svg>
