<?xml version="1.0" encoding="utf-8"?>
<!-- Generator: Adobe Illustrator 21.1.0, SVG Export Plug-In . SVG Version: 6.00 Build 0)  -->
<!DOCTYPE svg PUBLIC "-//W3C//DTD SVG 1.1//EN" "http://www.w3.org/Graphics/SVG/1.1/DTD/svg11.dtd">
<svg version="1.1" id="Layer_1" xmlns="http://www.w3.org/2000/svg" xmlns:xlink="http://www.w3.org/1999/xlink" x="0px" y="0px"
	 viewBox="0 0 612 612" style="enable-background:new 0 0 612 612;" xml:space="preserve">
<style type="text/css">
	.st0{fill:#FFFFFF;stroke:#231F20;stroke-miterlimit:10;}
	.st1{fill:#FFFFFF;stroke:#FFFFFF;stroke-width:3;stroke-miterlimit:10;}
</style>
<circle class="st0" cx="-108" cy="250.5" r="0"/>
<g>
	<path class="st1" d="M208.7,431.2c-11.2-5.1-16.6-9.3-20.4-15.1c-0.7-1.1-9.1-14.3-4.4-28.3c3.2-9.7,11.4-15.8,20.4-20.4
		c36.3-18.6,84.5-12.8,157.6-8.9c0,0,13.9,0.8,53.1,14.2c2.3,0.8,6.5,2.3,9.7,6.2c7.3,8.8,4.8,23.5,0.9,31.9
		c-5.6,11.9-17.6,18.9-39.9,25.7c-46.3,14.1-83,11.1-132,7.1C252,443.5,231.7,441.6,208.7,431.2z"/>
	<path class="st1" d="M137.8,348.6c-3.5-3.5-12.2-12.4-11.5-23.9c0.2-3.8,1.8-12.1,17.7-24.8c20.8-16.6,42.6-22,46.9-23
		c55.5-13.2,96.5-15.9,96.5-15.9c61.3-4.1,62.6,3.3,139,6.2c3.8,0.1,18.7,0.7,34.5,8.9c7.9,4.1,17.5,9.2,22.1,20.4
		c0.5,1.3,5.3,13.4,0,25.7c-5.5,12.7-18.5,18.2-26.6,21.3c-39.8,14.9-91.8,18.1-116,19.5c-35.4,2-71,0.4-106.3,4.4
		c-3.2,0.4-29.7,3.4-62-2.7C160.3,362.3,147.9,358.8,137.8,348.6z"/>
	<path class="st1" d="M156.3,260.6c-1.8-2.2-11.6-14.4-8-26.6c2-6.7,7.3-10.6,9.7-12.4c36.8-26.2,85-39,85-39
		c44.9-11.9,67.8-17.8,89.4-17.7c30.8,0.1,47.4,6.8,58.5,13.3c7.9,4.7,22.6,13.6,28.3,31c1.4,4.1,3.9,11.9,1.8,20.4
		c-1.9,7.6-8.5,19-42.5,31.9c-21.8,8.2-41.4,11.9-68.2,15.1c-9.8,1.1-53,5.9-108.9,0.9C184,275.9,167,273.5,156.3,260.6z"/>
</g>
</svg>
