<?xml version="1.0" encoding="utf-8"?>
<!-- Generator: Adobe Illustrator 21.1.0, SVG Export Plug-In . SVG Version: 6.00 Build 0)  -->
<!DOCTYPE svg PUBLIC "-//W3C//DTD SVG 1.1//EN" "http://www.w3.org/Graphics/SVG/1.1/DTD/svg11.dtd">
<svg version="1.1" id="Layer_1" xmlns="http://www.w3.org/2000/svg" xmlns:xlink="http://www.w3.org/1999/xlink" x="0px" y="0px"
	 viewBox="0 0 612 612" style="enable-background:new 0 0 612 612;" xml:space="preserve">
<style type="text/css">
	.st0{fill:#FFFFFF;stroke:#231F20;stroke-miterlimit:10;}
	.st1{fill:#FFFFFF;}
</style>
<circle class="st0" cx="-108" cy="250.5" r="0"/>
<g id="Calque_9">
	<g>
		<path class="st1" d="M520,237.1c-0.2,4.8-0.4,9.6-0.6,14.3c-1.7,35.4-16.3,64.7-42.2,88.5c-21.8,20-46.2,36.3-72.7,49.3
			c-35,17.1-69.9,34.3-105.2,50.9c-33.2,15.6-53.2,28-80.9,48.4c-11.8,8.7-20.8,19.2-29.8,30.4c1.1-1.9,2-3.9,3.2-5.7
			c12.3-18.7,28.6-33.4,46.2-47c25.3-19.6,53.2-35,81.3-50.2c31.2-16.9,63.1-32.7,93.4-51c26.2-15.8,50.4-34.6,68-60.6
			c11.2-16.5,15.3-35,15.2-54.6c0-22.3-4.5-43.6-15.4-63.3c-18.4-33.5-47.3-50.1-85.1-51.9c-13.6-0.6-26.7,1.7-39.1,7.5
			c-0.3,0.1-0.7,0.1-1.2-0.4c3.7-1.4,7.3-3,11-4.2c3.7-1.2,7.6-2,11.3-3.2c-22.4,2.9-40.4,13.9-53.9,31.5
			c-9.4,12.3-17.1,26-25.5,39.1c-0.7,1.1-1.3,2.2-2.5,4c-1.7-6.2-3-11.6-4.6-16.9c-2.6-8.6-4.5-17.5-8.2-25.7
			c-12.4-27.6-34.9-41.5-64.4-43.6c-39.3-2.7-68.9,14.2-88.9,47.8c-11.2,18.9-17.2,39.3-15.4,61.5c1.3,16.1,7.6,30.6,15.7,44.4
			c11.9,20.2,26.6,38.4,41,56.8c5.6,7.2,10.9,14.6,15.9,22.4c-0.2-0.1-0.5-0.1-0.7-0.3c-14.4-18.7-28.9-37.4-43.1-56.3
			c-10.5-13.9-19.7-28.7-25.6-45.2c-7.4-20.6-6.5-41.2,0.4-61.7c0.8-2.3,1.6-4.5,2.3-6.8c0.1-0.1-0.2-0.4-1.3-0.9
			c-2.2,7.7-4.8,15.4-6.5,23.2c-5.8,26.4,1.2,50.4,14.9,72.8c6.3,10.3,13.6,20,19.9,29.2c0.1,2-0.3,3.7,0.3,4.7
			c2,3.5,4.3,6.9,6.7,10.1c4.1,5.2,8.4,10.2,12.7,15.2c3.4,4,7.2,7.8,10.5,11.8c1.6,1.9,2.6,4.2,3.5,6.7
			c-6.1-6.9-12.3-13.9-18.4-20.8c-7.3-8.2-14.8-16.1-21.8-24.5c-10.9-13.1-21-26.8-29-41.9c-13.6-25.9-15.9-52.8-7.9-80.9
			c5.7-19.7,14.5-37.5,28-53c0.3-0.3,0.5-0.7,0.7-1.1c-0.2-0.2-0.5-0.4-0.7-0.6c-3.7,4.6-7.6,9-11.1,13.8
			c-6.8,9.3-11.6,19.8-16.3,30.3c-8.5,19.3-10.3,39.1-6.8,59.6c0.9,5.3,2.6,10.5,4,15.7l0.1-0.1c-1.5-4.2-3.4-8.3-4.3-12.7
			c-5.5-25-1.3-48.9,8.9-71.9c8.7-19.8,20.3-37.4,38.7-49.8c21-14.1,44.1-20.5,69.3-19.9c19.3,0.5,37.7,4.6,53.9,15.5
			c7.4,5,13.6,11.6,20.3,17.5c1.1,1,2.2,2,3.5,2.7c-4.4-7.2-10.1-13.3-16.7-18.3c-23.9-18-51-24.1-80.2-19.8
			c-46.1,6.8-75.8,34.3-93,76.5c-7.6,18.6-10.5,38.1-8.2,58.1c0.2,1.4-0.1,2.8-0.2,4.2c-0.5-5-1-10-1.6-15c0.1-1.1,0.3-2.1,0.3-3.2
			c-0.1-17.9,3.5-35,10.5-51.4c14.4-33.6,38-57.5,73.3-68.8c5.3-1.7,10.8-2.9,16.3-4.4c4.8-0.5,9.5-1,14.3-1.5
			c3.5,0.2,6.9,0.3,10.4,0.5c35.7,2,64.6,16.4,84.3,47.2c1.2,1.9,2.4,3.7,3.6,5.7c7.6-9.1,16.5-16.2,26.3-22.1
			c24.4-14.6,50.8-19.2,78.6-14.3c51.9,9.1,86.8,38.6,103.2,89.1c2.1,6.4,3.4,13,5.1,19.4C518.7,224.7,519.4,230.9,520,237.1z
			 M128.2,290.1c-4.1-7.9-8.5-15.8-12.3-23.9c-6.2-13-10-26.8-10.2-41.3c-0.2-19.1,4.8-37,13.5-53.9c0.4-0.9,0.8-1.8,1.5-3.5
			c-7.6,7-15.8,33.4-16.3,53.2C103.7,246.8,113.7,269.3,128.2,290.1z M262.8,137.5c-19.2-20.9-76.4-23.6-98.4-4.8
			C198.2,116.8,231,116.4,262.8,137.5z"/>
		<path class="st1" d="M101.4,255.1c2.1,4.8,4.1,9.6,6.2,14.5c-0.3,0.1-0.7,0.3-1,0.4C104.9,265,103.2,260,101.4,255.1
			C101.5,255,101.4,255.1,101.4,255.1z"/>
	</g>
</g>
</svg>
