<?xml version="1.0" encoding="utf-8"?>
<!-- Generator: Adobe Illustrator 21.1.0, SVG Export Plug-In . SVG Version: 6.00 Build 0)  -->
<!DOCTYPE svg PUBLIC "-//W3C//DTD SVG 1.1//EN" "http://www.w3.org/Graphics/SVG/1.1/DTD/svg11.dtd">
<svg version="1.1" id="Layer_1" xmlns="http://www.w3.org/2000/svg" xmlns:xlink="http://www.w3.org/1999/xlink" x="0px" y="0px"
	 viewBox="0 0 170 170" style="enable-background:new 0 0 170 170;" xml:space="preserve">
<style type="text/css">
	.st0{fill:#FFFFFF;}
</style>
<path class="st0" d="M50.4,105l54.8-54.8c4.1-4.1,10.6-4.1,14.4,0c4.1,4.1,4.1,10.6,0,14.4l-54.8,54.8c-4.1,4.1-10.3,4.1-14.4,0
	C46.3,115.3,46.3,109.2,50.4,105z M49,144.8c-6.2,6.9-17.8,6.9-24,0c-6.9-6.2-6.9-17.8,0-24l43.5-43.5c-12.7-3.8-27.1-1-37,9.3
	L11,107.1c-14.4,14.4-14.4,37.7,0,52.1c14.6,14.6,37.5,14.6,52.1,0l20.6-20.6c9.9-9.9,13-24.3,9.3-37L49,144.8z M159,10.8
	c-14.4-14.4-37.7-14.4-52.1,0L86.4,31.4c-9.9,9.9-13,24.3-9.3,37l43.5-43.5c7.1-7.1,18.1-6.5,24,0c7.1,7.1,6.5,18.1,0,24l-43.2,43.9
	c14.2,4.3,27.7,0.1,37-9.3L159,62.9C173.4,48.5,173.4,25.2,159,10.8z"/>
</svg>
