<?xml version="1.0" standalone="no"?>
<!DOCTYPE svg PUBLIC "-//W3C//DTD SVG 20010904//EN"
 "http://www.w3.org/TR/2001/REC-SVG-20010904/DTD/svg10.dtd">
<svg version="1.0" xmlns="http://www.w3.org/2000/svg"
 width="1080.000000pt" height="1080.000000pt" viewBox="0 0 1080.000000 1080.000000"
 preserveAspectRatio="xMidYMid meet">
<metadata>
Created by potrace 1.11, written by Peter Selinger 2001-2013
</metadata>
<g transform="translate(0.000000,1080.000000) scale(0.100000,-0.100000)"
fill="#000000" stroke="none">
<path d="M6130 7144 c-14 -2 -101 -8 -195 -13 -221 -12 -496 -50 -755 -103
-141 -29 -386 -87 -460 -109 -36 -10 -96 -29 -135 -40 -38 -12 -92 -30 -119
-40 -27 -10 -54 -19 -60 -19 -6 0 -33 -9 -61 -19 -27 -11 -93 -36 -145 -56
-534 -205 -1051 -503 -1501 -864 -155 -125 -383 -335 -497 -458 -245 -266
-236 -255 -415 -493 -69 -93 -197 -276 -197 -283 0 -3 -22 -37 -48 -78 -74
-113 -225 -391 -287 -530 -30 -68 -62 -137 -69 -154 -8 -16 -28 -66 -46 -110
-29 -75 -30 -80 -13 -93 29 -21 45 -10 79 50 74 131 251 394 384 571 300 398
721 822 1119 1125 31 24 69 53 85 65 43 33 121 88 216 153 150 102 200 134
206 134 3 0 24 13 47 29 115 78 500 281 707 372 25 11 63 28 85 39 56 25 101
44 178 74 37 14 97 38 135 52 90 36 179 66 352 119 245 76 374 112 445 125 22
4 67 14 100 23 235 59 560 109 967 148 192 18 268 20 655 17 440 -5 457 -6
873 -54 192 -22 468 -70 655 -114 211 -50 404 -99 485 -124 25 -8 99 -31 165
-51 162 -50 245 -79 340 -115 44 -17 100 -38 125 -47 25 -9 50 -19 55 -23 6
-4 22 -10 38 -14 23 -5 29 -2 39 19 10 22 8 28 -8 40 -30 23 -477 246 -599
299 -60 26 -123 53 -140 60 -232 103 -795 280 -1080 339 -304 64 -441 87 -690
116 -238 28 -491 41 -760 40 -126 -1 -241 -3 -255 -5z"/>
</g>
</svg>
