<?xml version="1.0" encoding="utf-8"?>
<!-- Generator: Adobe Illustrator 21.1.0, SVG Export Plug-In . SVG Version: 6.00 Build 0)  -->
<!DOCTYPE svg PUBLIC "-//W3C//DTD SVG 1.1//EN" "http://www.w3.org/Graphics/SVG/1.1/DTD/svg11.dtd">
<svg version="1.1" id="Layer_1" xmlns="http://www.w3.org/2000/svg" xmlns:xlink="http://www.w3.org/1999/xlink" x="0px" y="0px"
	 viewBox="0 0 612 612" style="enable-background:new 0 0 612 612;" xml:space="preserve">
<style type="text/css">
	.st0{fill:#FFFFFF;stroke:#231F20;stroke-miterlimit:10;}
	.st1{fill:#FFFFFF;stroke:#FFFFFF;stroke-width:5;stroke-miterlimit:10;}
	.st2{fill:#FFFFFF;}
</style>
<circle class="st0" cx="-108" cy="250.5" r="0"/>
<g>
	<g>
		<path class="st1" d="M476.5,303.3l-34.4-34.4c-77.5-77.1-194.6-77.1-272.1,0l-34.4,34.4c-0.8,0.8-1.2,1.6-1.2,2.8s0.4,2,1.2,2.8
			l34.4,34.4C208.7,381.6,257.4,401,306,401s97.3-19.4,136.1-57.7l34.4-34.4c0.8-0.8,1.2-1.6,1.2-2.8S477.3,304.1,476.5,303.3z
			 M436.5,337.3c-74.4,74-186.7,74-261,0L143.8,306l31.6-31.2c74.4-74,186.7-74,261,0l31.6,31.2L436.5,337.3z"/>
	</g>
	<g>
		<path class="st2" d="M330.1,306h-7.9c0,9.1-7.5,16.2-16.2,16.2s-16.2-7.5-16.2-16.2s7.5-16.2,16.2-16.2v-7.9
			c-13.4,0-24.1,11.1-24.1,24.1s11.1,24.1,24.1,24.1S330.1,319.5,330.1,306z"/>
	</g>
	<g>
		<path class="st2" d="M259.4,306h15.3c0-17.6,14.5-31.3,31.3-31.3s31.3,14.5,31.3,31.3s-14.5,31.3-31.3,31.3v15.3
			c25.9,0,46.6-21.4,46.6-46.6s-21.4-46.6-46.6-46.6S259.4,280.1,259.4,306z"/>
	</g>
	<path class="st2" d="M262.1,350c24.3,24.3,63.8,24.1,87.8,0l-5.6-5.6c-21,21-55.4,21.3-76.6,0c-21.3-21.3-21.3-55.4,0-76.6
		c21.3-21.3,55.4-21.3,76.6,0l5.6-5.6c-24.3-24.3-63.5-24.3-87.8,0S237.8,325.6,262.1,350z"/>
</g>
</svg>
