<?xml version="1.0" encoding="utf-8"?>
<!-- Generator: Adobe Illustrator 21.1.0, SVG Export Plug-In . SVG Version: 6.00 Build 0)  -->
<!DOCTYPE svg PUBLIC "-//W3C//DTD SVG 1.1//EN" "http://www.w3.org/Graphics/SVG/1.1/DTD/svg11.dtd">
<svg version="1.1" id="Layer_1" xmlns="http://www.w3.org/2000/svg" xmlns:xlink="http://www.w3.org/1999/xlink" x="0px" y="0px"
	 viewBox="0 0 612 612" style="enable-background:new 0 0 612 612;" xml:space="preserve">
<style type="text/css">
	.st0{fill:#FFFFFF;stroke:#231F20;stroke-miterlimit:10;}
	.st1{fill:#FFFFFF;}
</style>
<circle class="st0" cx="-108" cy="250.5" r="0"/>
<g>
	<path class="st1" d="M343.3,178.1c-40.4-1.7-76.8,15.9-101.5,44.2c19.7-16.2,45-25.8,72.5-24.7c59.2,2.5,105.1,52.5,102.6,111.7
		s-52.5,105.1-111.7,102.6c-27.5-1.2-51.9-12.9-70.1-30.7c22.2,30.3,57,50.9,97.4,52.6c70.6,3,130.3-51.8,133.3-122.4
		S413.9,181.1,343.3,178.1z"/>
	<g>
		<path class="st1" d="M368.3,380.9c5.3-8.1,8.7-16.8,10.5-25.7c-0.7,1.2-1.2,2.6-2,3.8c-20.8,31.7-63.4,40.6-95.1,19.8
			C250,358,241.2,315.4,262,283.6c0.8-1.2,1.8-2.2,2.7-3.3c-7.4,5.2-14.1,11.8-19.4,19.8c-22.3,34-12.8,79.6,21.2,101.9
			C300.4,424.4,346.1,414.9,368.3,380.9z"/>
		<path class="st1" d="M246,143.6c-92.4,33.2-140.5,135-107.3,227.5c19.2,53.4,61.5,91.3,111.5,107.9c-34-16.8-61.8-46.1-75.6-84.6
			c-28.4-79,12.7-166,91.7-194.4s166,12.7,194.4,91.7c13.8,38.5,10.9,78.8-4.6,113.4c27.9-44.6,36.5-100.8,17.4-154.2
			C440.3,158.4,338.4,110.4,246,143.6z"/>
		<path class="st1" d="M259.5,343.5c3.5,3.7,7.5,6.4,11.8,8.4c-0.5-0.5-1.2-0.9-1.7-1.5c-13.6-14.4-13-37.1,1.4-50.7
			c14.4-13.6,37.1-13,50.7,1.4c0.5,0.5,0.9,1.2,1.4,1.8c-1.7-4.4-4.3-8.6-7.7-12.2c-14.6-15.4-38.9-16.1-54.3-1.5
			C245.6,303.7,244.9,328.1,259.5,343.5z"/>
		<circle class="st1" cx="307" cy="308.3" r="17.1"/>
		<circle class="st1" cx="367.4" cy="291.3" r="17.1"/>
	</g>
</g>
</svg>
