<?xml version="1.0" encoding="utf-8"?>
<!-- Generator: Adobe Illustrator 21.1.0, SVG Export Plug-In . SVG Version: 6.00 Build 0)  -->
<!DOCTYPE svg PUBLIC "-//W3C//DTD SVG 1.1//EN" "http://www.w3.org/Graphics/SVG/1.1/DTD/svg11.dtd">
<svg version="1.1" id="Layer_1" xmlns="http://www.w3.org/2000/svg" xmlns:xlink="http://www.w3.org/1999/xlink" x="0px" y="0px"
	 viewBox="0 0 612 612" style="enable-background:new 0 0 612 612;" xml:space="preserve">
<style type="text/css">
	.st0{fill:#FFFFFF;stroke:#231F20;stroke-miterlimit:10;}
	.st1{fill:#FEFEFE;}
</style>
<circle class="st0" cx="-108" cy="250.5" r="0"/>
<path class="st1" d="M114.2,308.5c1.3,0.8,2.3,1.4,3.3,2c27.2,15.1,54.4,30.4,81.8,45.3c3.8,2.1,4.9,4.3,4.7,8.4
	c-1,32-1.7,63.9-2.5,95.9c0,1.2-0.5,2.5,0.4,3.9c0.5-0.3,0.9-0.6,1.2-0.9c28.1-21.4,56.3-42.7,84.4-64.2c2.6-2,4.4-1.9,7.2-0.5
	c19.5,9.9,39.1,19.5,58.5,29.3c3.2,1.6,4.4,1.2,6-2c45.5-91.2,91.1-182.4,136.7-273.7c0.6-1.1,1.1-2.2,2-4.1
	C369.6,201.7,242.1,255,114.2,308.5z M310.7,315.9c2.8-15.4-2.2-25.8-15.5-31.9c-1.2,1.1-0.7,2.4-0.7,3.4c0,14.7-0.2,29.3,0.1,44
	c0.1,5.5-2.4,9.1-6.6,12c-7.3,5-18.1,4.9-25.3-0.2c-9-6.3-9-17.9,0-24.2c5.9-4.1,12.5-5,19.3-2.9c2.9,0.9,3.1,0,3.1-2.5
	c-0.1-18.4-0.1-36.9,0-55.3c0-1-0.4-2,1.3-3.8c1.5,8.8,8,12.5,14,16.9c8.5,6.2,15.4,13.6,17,24.6
	C318.4,303.1,315.9,309.4,310.7,315.9z"/>
</svg>
