<?xml version="1.0" encoding="utf-8"?>
<!-- Generator: Adobe Illustrator 21.1.0, SVG Export Plug-In . SVG Version: 6.00 Build 0)  -->
<!DOCTYPE svg PUBLIC "-//W3C//DTD SVG 1.1//EN" "http://www.w3.org/Graphics/SVG/1.1/DTD/svg11.dtd">
<svg version="1.1" id="Layer_1" xmlns="http://www.w3.org/2000/svg" xmlns:xlink="http://www.w3.org/1999/xlink" x="0px" y="0px"
	 viewBox="0 0 612 612" style="enable-background:new 0 0 612 612;" xml:space="preserve">
<style type="text/css">
	.st0{fill:#FFFFFF;}
	.st1{fill-rule:evenodd;clip-rule:evenodd;fill:none;}
</style>
<g>
	<path class="st0" d="M266.6,386.8c0,48.6,0.9,54.6,30.6,57.9l12.5,1.4c2.8,2.3,1.9,10.2-0.9,11.6c-26.4-0.9-41.7-1.4-60.2-1.4
		c-19.4,0-36.1,0.5-56.5,1.4c-2.8-1.4-3.7-8.8-0.9-11.6l9.7-1.4c26.9-3.7,27.8-9.3,27.8-57.9V215.9c0-39.4-0.9-47.2-21.8-49.5
		l-16.7-1.9c-3.2-2.8-2.8-9.7,0.9-11.6c24.5-3.2,53.3-3.7,91.7-3.7s67.1,5.1,88.9,18.5c21.3,13.4,37,37.5,37,69.5
		c0,42.6-26.4,63.9-46.3,73.6c-20.4,9.7-44.9,13.9-63.9,13.9c-3.2-1.4-3.2-8.3-0.5-9.3c50-9.3,68.1-37.5,68.1-77.8
		c0-44.9-26.4-74.1-74.6-74.1c-24.5,0-25,1.9-25,16.7V386.8z"/>
	<path class="st0" d="M372.1,437.3c0-15.7,11.1-27.3,25.9-27.3c15.7,0,25.9,12.5,25.9,27.3c0,14.8-10.2,25.5-25.9,25.5
		C384.6,462.7,372.1,453,372.1,437.3z"/>
</g>
<rect x="22.2" y="20.9" class="st1" width="569.7" height="569.7"/>
</svg>
